# Blender 3.3.0
# www.blender.org
mtllib SimpleDice.mtl
o Dice
v 1.000000 -0.810000 -0.810000
v 0.810000 -1.000000 -0.810000
v 0.810000 -0.810000 -1.000000
v 0.985537 -0.882710 -0.810000
v 0.944350 -0.944350 -0.810000
v 0.985537 -0.810000 -0.882710
v 0.968082 -0.884532 -0.884532
v 0.934688 -0.934688 -0.880750
v 0.919697 -0.919697 -0.919697
v 0.810000 -0.985537 -0.882710
v 0.810000 -0.944350 -0.944350
v 0.882710 -0.985537 -0.810000
v 0.884532 -0.968082 -0.884532
v 0.880750 -0.934688 -0.934688
v 0.882710 -0.810000 -0.985537
v 0.944350 -0.810000 -0.944350
v 0.810000 -0.882710 -0.985537
v 0.884532 -0.884532 -0.968082
v 0.934688 -0.880750 -0.934688
v -1.000000 -0.810000 -0.810000
v -0.810000 -0.810000 -1.000000
v -0.810000 -1.000000 -0.810000
v -0.985537 -0.810000 -0.882710
v -0.944350 -0.810000 -0.944350
v -0.985537 -0.882710 -0.810000
v -0.968082 -0.884532 -0.884532
v -0.934688 -0.880750 -0.934688
v -0.919697 -0.919697 -0.919697
v -0.810000 -0.882710 -0.985537
v -0.810000 -0.944350 -0.944350
v -0.882710 -0.810000 -0.985537
v -0.884532 -0.884532 -0.968082
v -0.880750 -0.934688 -0.934688
v -0.882710 -0.985537 -0.810000
v -0.944350 -0.944350 -0.810000
v -0.810000 -0.985537 -0.882710
v -0.884532 -0.968082 -0.884532
v -0.934688 -0.934688 -0.880750
v 1.000000 -0.810000 0.810000
v 0.810000 -0.810000 1.000000
v 0.810000 -1.000000 0.810000
v 0.985537 -0.810000 0.882710
v 0.944350 -0.810000 0.944350
v 0.985537 -0.882710 0.810000
v 0.968082 -0.884532 0.884532
v 0.934688 -0.880750 0.934688
v 0.919697 -0.919697 0.919697
v 0.810000 -0.882710 0.985537
v 0.810000 -0.944350 0.944350
v 0.882710 -0.810000 0.985537
v 0.884532 -0.884532 0.968082
v 0.880750 -0.934688 0.934688
v 0.882710 -0.985537 0.810000
v 0.944350 -0.944350 0.810000
v 0.810000 -0.985537 0.882710
v 0.884532 -0.968082 0.884532
v 0.934688 -0.934688 0.880750
v -1.000000 -0.810000 0.810000
v -0.810000 -1.000000 0.810000
v -0.810000 -0.810000 1.000000
v -0.985537 -0.882710 0.810000
v -0.944350 -0.944350 0.810000
v -0.985537 -0.810000 0.882710
v -0.968082 -0.884532 0.884532
v -0.934688 -0.934688 0.880750
v -0.919697 -0.919697 0.919697
v -0.810000 -0.985537 0.882710
v -0.810000 -0.944350 0.944350
v -0.882710 -0.985537 0.810000
v -0.884532 -0.968082 0.884532
v -0.880750 -0.934688 0.934688
v -0.882710 -0.810000 0.985537
v -0.944350 -0.810000 0.944350
v -0.810000 -0.882710 0.985537
v -0.884532 -0.884532 0.968082
v -0.934688 -0.880750 0.934688
v 1.000000 0.810000 -0.810000
v 0.810000 0.810000 -1.000000
v 0.810000 1.000000 -0.810000
v 0.985537 0.810000 -0.882710
v 0.944350 0.810000 -0.944350
v 0.985537 0.882710 -0.810000
v 0.968082 0.884532 -0.884532
v 0.934688 0.880750 -0.934688
v 0.919697 0.919697 -0.919697
v 0.810000 0.882710 -0.985537
v 0.810000 0.944350 -0.944350
v 0.882710 0.810000 -0.985537
v 0.884532 0.884532 -0.968082
v 0.880750 0.934688 -0.934688
v 0.882710 0.985537 -0.810000
v 0.944350 0.944350 -0.810000
v 0.810000 0.985537 -0.882710
v 0.884532 0.968082 -0.884532
v 0.934688 0.934688 -0.880750
v -1.000000 0.810000 -0.810000
v -0.810000 1.000000 -0.810000
v -0.810000 0.810000 -1.000000
v -0.985537 0.882710 -0.810000
v -0.944350 0.944350 -0.810000
v -0.985537 0.810000 -0.882710
v -0.968082 0.884532 -0.884532
v -0.934688 0.934688 -0.880750
v -0.919697 0.919697 -0.919697
v -0.810000 0.985537 -0.882710
v -0.810000 0.944350 -0.944350
v -0.882710 0.985537 -0.810000
v -0.884532 0.968082 -0.884532
v -0.880750 0.934688 -0.934688
v -0.882710 0.810000 -0.985537
v -0.944350 0.810000 -0.944350
v -0.810000 0.882710 -0.985537
v -0.884532 0.884532 -0.968082
v -0.934688 0.880750 -0.934688
v 0.810000 0.810000 1.000000
v 1.000000 0.810000 0.810000
v 0.810000 1.000000 0.810000
v 0.882710 0.810000 0.985537
v 0.944350 0.810000 0.944350
v 0.810000 0.882710 0.985537
v 0.884532 0.884532 0.968082
v 0.934688 0.880750 0.934688
v 0.919697 0.919697 0.919697
v 0.985537 0.882710 0.810000
v 0.944350 0.944350 0.810000
v 0.985537 0.810000 0.882710
v 0.968082 0.884532 0.884532
v 0.934688 0.934688 0.880750
v 0.810000 0.985537 0.882710
v 0.810000 0.944350 0.944350
v 0.882710 0.985537 0.810000
v 0.884532 0.968082 0.884532
v 0.880750 0.934688 0.934688
v -1.000000 0.810000 0.810000
v -0.810000 0.810000 1.000000
v -0.810000 1.000000 0.810000
v -0.985537 0.810000 0.882710
v -0.944350 0.810000 0.944350
v -0.985537 0.882710 0.810000
v -0.968082 0.884532 0.884532
v -0.934688 0.880750 0.934688
v -0.919697 0.919697 0.919697
v -0.810000 0.882710 0.985537
v -0.810000 0.944350 0.944350
v -0.882710 0.810000 0.985537
v -0.884532 0.884532 0.968082
v -0.880750 0.934688 0.934688
v -0.882710 0.985537 0.810000
v -0.944350 0.944350 0.810000
v -0.810000 0.985537 0.882710
v -0.884532 0.968082 0.884532
v -0.934688 0.934688 0.880750
vn -0.9899 0.1004 -0.1004
vn -0.9899 -0.1004 -0.1004
vn -0.9899 -0.1004 0.1004
vn -0.9899 0.1004 0.1004
vn -0.1004 -0.1004 0.9899
vn 0.1004 -0.1004 0.9899
vn 0.1004 0.1004 0.9899
vn -0.1004 0.1004 0.9899
vn -0.1004 0.9899 0.1004
vn 0.1004 0.9899 0.1004
vn 0.1004 0.9899 -0.1004
vn -0.1004 0.9899 -0.1004
vn -0.1004 0.1004 -0.9899
vn 0.1004 0.1004 -0.9899
vn 0.1004 -0.1004 -0.9899
vn -0.1004 -0.1004 -0.9899
vn 0.9899 -0.1004 -0.1004
vn 0.9899 0.1004 -0.1004
vn 0.9899 0.1004 0.1004
vn 0.9899 -0.1004 0.1004
vn 0.9201 -0.3792 -0.0981
vn 0.8545 -0.3673 -0.3673
vn 0.9201 -0.0981 -0.3792
vn 0.7041 -0.7041 -0.0919
vn 0.6663 -0.6663 -0.3347
vn 0.6663 -0.3347 -0.6663
vn 0.7041 -0.0919 -0.7041
vn 0.5774 -0.5774 -0.5774
vn 0.1004 -0.9899 -0.1004
vn 0.0981 -0.9201 -0.3792
vn 0.3673 -0.8545 -0.3673
vn 0.3792 -0.9201 -0.0981
vn 0.0919 -0.7041 -0.7041
vn 0.3347 -0.6663 -0.6663
vn 0.3792 -0.0981 -0.9201
vn 0.3673 -0.3673 -0.8545
vn 0.0981 -0.3792 -0.9201
vn -0.9201 -0.0981 -0.3792
vn -0.8545 -0.3673 -0.3673
vn -0.9201 -0.3792 -0.0981
vn -0.7041 -0.0919 -0.7041
vn -0.6663 -0.3347 -0.6663
vn -0.6663 -0.6663 -0.3347
vn -0.7041 -0.7041 -0.0919
vn -0.5774 -0.5774 -0.5774
vn -0.0981 -0.3792 -0.9201
vn -0.3673 -0.3673 -0.8545
vn -0.3792 -0.0981 -0.9201
vn -0.0919 -0.7041 -0.7041
vn -0.3347 -0.6663 -0.6663
vn -0.1004 -0.9899 -0.1004
vn -0.3792 -0.9201 -0.0981
vn -0.3673 -0.8545 -0.3673
vn -0.0981 -0.9201 -0.3792
vn 0.9201 -0.0981 0.3792
vn 0.8545 -0.3673 0.3673
vn 0.9201 -0.3792 0.0981
vn 0.7041 -0.0919 0.7041
vn 0.6663 -0.3347 0.6663
vn 0.6663 -0.6663 0.3347
vn 0.7041 -0.7041 0.0919
vn 0.5774 -0.5774 0.5774
vn 0.0981 -0.3792 0.9201
vn 0.3673 -0.3673 0.8545
vn 0.3792 -0.0981 0.9201
vn 0.0919 -0.7041 0.7041
vn 0.3347 -0.6663 0.6663
vn 0.1004 -0.9899 0.1004
vn 0.3792 -0.9201 0.0981
vn 0.3673 -0.8545 0.3673
vn 0.0981 -0.9201 0.3792
vn -0.9201 -0.3792 0.0981
vn -0.8545 -0.3673 0.3673
vn -0.9201 -0.0981 0.3792
vn -0.7041 -0.7041 0.0919
vn -0.6663 -0.6663 0.3347
vn -0.6663 -0.3347 0.6663
vn -0.7041 -0.0919 0.7041
vn -0.5774 -0.5774 0.5774
vn -0.1004 -0.9899 0.1004
vn -0.0981 -0.9201 0.3792
vn -0.3673 -0.8545 0.3673
vn -0.3792 -0.9201 0.0981
vn -0.0919 -0.7041 0.7041
vn -0.3347 -0.6663 0.6663
vn -0.3792 -0.0981 0.9201
vn -0.3673 -0.3673 0.8545
vn -0.0981 -0.3792 0.9201
vn 0.9201 0.0981 -0.3792
vn 0.8545 0.3673 -0.3673
vn 0.9201 0.3792 -0.0981
vn 0.7041 0.0919 -0.7041
vn 0.6663 0.3347 -0.6663
vn 0.6663 0.6663 -0.3347
vn 0.7041 0.7041 -0.0919
vn 0.5774 0.5773 -0.5774
vn 0.0981 0.3792 -0.9201
vn 0.3673 0.3673 -0.8545
vn 0.3792 0.0981 -0.9201
vn 0.0919 0.7041 -0.7041
vn 0.3347 0.6663 -0.6663
vn 0.3792 0.9201 -0.0981
vn 0.3673 0.8545 -0.3673
vn 0.0981 0.9201 -0.3792
vn -0.9201 0.3792 -0.0981
vn -0.8545 0.3673 -0.3673
vn -0.9201 0.0981 -0.3792
vn -0.7041 0.7041 -0.0919
vn -0.6663 0.6663 -0.3347
vn -0.6663 0.3347 -0.6663
vn -0.7041 0.0919 -0.7041
vn -0.5774 0.5774 -0.5774
vn -0.0981 0.9201 -0.3792
vn -0.3673 0.8545 -0.3673
vn -0.3792 0.9201 -0.0981
vn -0.0919 0.7041 -0.7041
vn -0.3347 0.6663 -0.6663
vn -0.3792 0.0981 -0.9201
vn -0.3673 0.3673 -0.8545
vn -0.0981 0.3792 -0.9201
vn 0.3792 0.0981 0.9201
vn 0.3673 0.3673 0.8545
vn 0.0981 0.3792 0.9201
vn 0.7041 0.0919 0.7041
vn 0.6663 0.3347 0.6663
vn 0.3347 0.6663 0.6663
vn 0.0919 0.7041 0.7041
vn 0.5774 0.5774 0.5774
vn 0.9201 0.3792 0.0981
vn 0.8545 0.3673 0.3673
vn 0.9201 0.0981 0.3792
vn 0.7041 0.7041 0.0919
vn 0.6663 0.6663 0.3347
vn 0.0981 0.9201 0.3792
vn 0.3673 0.8545 0.3673
vn 0.3792 0.9201 0.0981
vn -0.9201 0.0981 0.3792
vn -0.8545 0.3673 0.3673
vn -0.9201 0.3792 0.0981
vn -0.7041 0.0919 0.7041
vn -0.6663 0.3347 0.6663
vn -0.6663 0.6663 0.3347
vn -0.7041 0.7041 0.0919
vn -0.5774 0.5774 0.5774
vn -0.0981 0.3792 0.9201
vn -0.3673 0.3673 0.8545
vn -0.3792 0.0981 0.9201
vn -0.0919 0.7041 0.7041
vn -0.3347 0.6663 0.6663
vn -0.3792 0.9201 0.0981
vn -0.3673 0.8545 0.3673
vn -0.0981 0.9201 0.3792
vt 0.023832 0.273789
vt 0.976168 0.273789
vt 0.273789 0.023833
vt 0.014745 0.273789
vt 0.000087 0.273789
vt 0.999913 0.273789
vt 0.023832 0.264702
vt 0.014518 0.264474
vt 0.000087 0.264947
vt 0.999913 0.264947
vt 0.000087 0.260080
vt 0.989877 0.250043
vt 0.250043 0.010123
vt 0.976167 0.264702
vt 0.976168 0.250043
vt 0.273789 0.000087
vt 0.985255 0.273789
vt 0.985482 0.264474
vt 0.985010 0.250043
vt 0.264947 0.000087
vt 0.264702 0.023833
vt 0.023832 0.250043
vt 0.250043 0.023833
vt 0.273789 0.014745
vt 0.264474 0.014518
vt 0.014990 0.250043
vt 0.250043 0.014990
vt 0.726211 0.273789
vt 0.476254 0.023832
vt 0.773703 0.273789
vt 0.726211 0.264702
vt 0.726211 0.250043
vt 0.500000 0.023832
vt 0.735298 0.273789
vt 0.735526 0.264474
vt 0.735053 0.250043
vt 0.500000 0.014990
vt 0.739921 0.250043
vt 0.489964 0.000087
vt 0.749957 0.260079
vt 0.476254 0.014745
vt 0.773703 0.250043
vt 0.476254 0.000087
vt 0.485341 0.023832
vt 0.485569 0.014518
vt 0.485096 0.000087
vt 0.764860 0.250043
vt 0.764615 0.273789
vt 0.749957 0.273789
vt 0.773703 0.264702
vt 0.764388 0.264474
vt 0.749957 0.264947
vt 0.023832 0.476254
vt 0.273789 0.726211
vt 0.976167 0.476254
vt 0.023832 0.485341
vt 0.023832 0.500000
vt 0.250043 0.726211
vt 0.014745 0.476254
vt 0.014518 0.485569
vt 0.014990 0.500000
vt 0.250043 0.735053
vt 0.010123 0.500000
vt 0.260080 0.749957
vt 0.999913 0.489964
vt 0.273789 0.735298
vt 0.273789 0.749957
vt 0.976168 0.500000
vt 0.264702 0.726211
vt 0.264474 0.735526
vt 0.264947 0.749957
vt 0.985010 0.500000
vt 0.985255 0.476254
vt 0.000087 0.476254
vt 0.999913 0.476254
vt 0.976167 0.485341
vt 0.985482 0.485569
vt 0.000087 0.485096
vt 0.999913 0.485096
vt 0.726211 0.476254
vt 0.773703 0.476254
vt 0.476254 0.726211
vt 0.735298 0.476254
vt 0.749957 0.476254
vt 0.726211 0.485341
vt 0.735526 0.485569
vt 0.749957 0.485096
vt 0.749957 0.489964
vt 0.759993 0.500000
vt 0.500000 0.739921
vt 0.773703 0.485341
vt 0.476254 0.749957
vt 0.773703 0.500000
vt 0.764616 0.476254
vt 0.764388 0.485569
vt 0.764860 0.500000
vt 0.485096 0.749957
vt 0.485341 0.726211
vt 0.726211 0.500000
vt 0.500000 0.726211
vt 0.476254 0.735298
vt 0.485569 0.735526
vt 0.735053 0.500000
vt 0.500000 0.735053
vt 0.226297 0.273789
vt 0.273789 0.226297
vt 0.273789 0.273789
vt 0.226297 0.264702
vt 0.226297 0.250043
vt 0.250043 0.226297
vt 0.235385 0.273789
vt 0.235612 0.264474
vt 0.235140 0.250043
vt 0.250043 0.235140
vt 0.250043 0.253389
vt 0.273789 0.235385
vt 0.273789 0.250043
vt 0.264702 0.226297
vt 0.264474 0.235612
vt 0.264947 0.250043
vt 0.264702 0.273789
vt 0.250043 0.273789
vt 0.273789 0.264702
vt 0.264474 0.264474
vt 0.250043 0.264947
vt 0.523746 0.273789
vt 0.476254 0.273789
vt 0.476254 0.226297
vt 0.514659 0.273789
vt 0.500000 0.273789
vt 0.523746 0.264702
vt 0.514431 0.264474
vt 0.500000 0.264947
vt 0.496655 0.250043
vt 0.476254 0.264702
vt 0.476254 0.250043
vt 0.485341 0.273789
vt 0.485569 0.264474
vt 0.485096 0.250043
vt 0.485341 0.226297
vt 0.523746 0.250043
vt 0.500000 0.226297
vt 0.476254 0.235385
vt 0.485569 0.235612
vt 0.514904 0.250043
vt 0.500000 0.235140
vt 0.273789 0.523746
vt 0.226297 0.476254
vt 0.273789 0.476254
vt 0.264702 0.523746
vt 0.226297 0.500000
vt 0.250043 0.523746
vt 0.273789 0.514659
vt 0.264474 0.514431
vt 0.250043 0.514904
vt 0.235140 0.500000
vt 0.253389 0.500000
vt 0.235385 0.476254
vt 0.250043 0.476254
vt 0.226297 0.485341
vt 0.235612 0.485569
vt 0.250043 0.485096
vt 0.273789 0.485341
vt 0.273789 0.500000
vt 0.264702 0.476254
vt 0.264474 0.485569
vt 0.264947 0.500000
vt 0.523746 0.476254
vt 0.476254 0.523746
vt 0.476254 0.476254
vt 0.523746 0.485341
vt 0.523746 0.500000
vt 0.500000 0.523746
vt 0.514659 0.476254
vt 0.514431 0.485569
vt 0.514904 0.500000
vt 0.500000 0.514904
vt 0.500000 0.496655
vt 0.476254 0.514659
vt 0.476254 0.500000
vt 0.485341 0.523746
vt 0.485569 0.514431
vt 0.485096 0.500000
vt 0.485341 0.476254
vt 0.500000 0.476254
vt 0.476254 0.485341
vt 0.485569 0.485569
vt 0.500000 0.485096
s 1
usemtl Dice
f 96/126/1 20/28/2 58/80/3 134/168/4
f 60/82/5 40/54/6 115/147/7 135/169/8
f 136/170/9 117/149/10 79/107/11 97/127/12
f 98/128/13 78/106/14 3/3/15 21/29/16
f 1/1/17 77/105/18 116/148/19 39/53/20
f 1/1/17 4/4/21 7/8/22 6/7/23
f 4/4/21 5/5/24 8/9/25 7/8/22
f 6/7/23 7/8/22 19/26/26 16/22/27
f 7/8/22 8/9/25 9/11/28 19/26/26
f 2/2/29 10/14/30 13/18/31 12/17/32
f 10/14/30 11/15/33 14/19/34 13/18/31
f 12/17/32 13/18/31 8/10/25 5/6/24
f 13/18/31 14/19/34 9/12/28 8/10/25
f 3/3/15 15/21/35 18/25/36 17/24/37
f 15/21/35 16/23/27 19/27/26 18/25/36
f 17/24/37 18/25/36 14/20/34 11/16/33
f 18/25/36 19/27/26 9/13/28 14/20/34
f 20/28/2 23/31/38 26/35/39 25/34/40
f 23/31/38 24/32/41 27/36/42 26/35/39
f 25/34/40 26/35/39 38/52/43 35/49/44
f 26/35/39 27/36/42 28/38/45 38/52/43
f 21/29/16 29/41/46 32/45/47 31/44/48
f 29/41/46 30/43/49 33/46/50 32/45/47
f 31/44/48 32/45/47 27/37/42 24/33/41
f 32/45/47 33/46/50 28/39/45 27/37/42
f 22/30/51 34/48/52 37/51/53 36/50/54
f 34/48/52 35/49/44 38/52/43 37/51/53
f 36/50/54 37/51/53 33/47/50 30/42/49
f 37/51/53 38/52/43 28/40/45 33/47/50
f 39/53/20 42/56/55 45/60/56 44/59/57
f 42/56/55 43/57/58 46/61/59 45/60/56
f 44/59/57 45/60/56 57/78/60 54/74/61
f 45/60/56 46/61/59 47/63/62 57/78/60
f 40/54/6 48/66/63 51/70/64 50/69/65
f 48/66/63 49/67/66 52/71/67 51/70/64
f 50/69/65 51/70/64 46/62/59 43/58/58
f 51/70/64 52/71/67 47/64/62 46/62/59
f 41/55/68 53/73/69 56/77/70 55/76/71
f 53/73/69 54/75/61 57/79/60 56/77/70
f 55/76/71 56/77/70 52/72/67 49/68/66
f 56/77/70 57/79/60 47/65/62 52/72/67
f 58/80/3 61/83/72 64/86/73 63/85/74
f 61/83/72 62/84/75 65/87/76 64/86/73
f 63/85/74 64/86/73 76/103/77 73/99/78
f 64/86/73 65/87/76 66/88/79 76/103/77
f 59/81/80 67/91/81 70/95/82 69/94/83
f 67/91/81 68/93/84 71/96/85 70/95/82
f 69/94/83 70/95/82 65/87/76 62/84/75
f 70/95/82 71/96/85 66/89/79 65/87/76
f 60/82/5 72/98/86 75/102/87 74/101/88
f 72/98/86 73/100/78 76/104/77 75/102/87
f 74/101/88 75/102/87 71/97/85 68/92/84
f 75/102/87 76/104/77 66/90/79 71/97/85
f 77/105/18 80/108/89 83/112/90 82/111/91
f 80/108/89 81/109/92 84/113/93 83/112/90
f 82/111/91 83/112/90 95/125/94 92/122/95
f 83/112/90 84/113/93 85/115/96 95/125/94
f 78/106/14 86/116/97 89/119/98 88/118/99
f 86/116/97 87/117/100 90/120/101 89/119/98
f 88/118/99 89/119/98 84/114/93 81/110/92
f 89/119/98 90/120/101 85/115/96 84/114/93
f 79/107/11 91/121/102 94/124/103 93/123/104
f 91/121/102 92/122/95 95/125/94 94/124/103
f 93/123/104 94/124/103 90/120/101 87/117/100
f 94/124/103 95/125/94 85/115/96 90/120/101
f 96/126/1 99/129/105 102/132/106 101/131/107
f 99/129/105 100/130/108 103/133/109 102/132/106
f 101/131/107 102/132/106 114/145/110 111/141/111
f 102/132/106 103/133/109 104/134/112 114/145/110
f 97/127/12 105/135/113 108/138/114 107/137/115
f 105/135/113 106/136/116 109/139/117 108/138/114
f 107/137/115 108/138/114 103/133/109 100/130/108
f 108/138/114 109/139/117 104/134/112 103/133/109
f 98/128/13 110/140/118 113/144/119 112/143/120
f 110/140/118 111/142/111 114/146/110 113/144/119
f 112/143/120 113/144/119 109/139/117 106/136/116
f 113/144/119 114/146/110 104/134/112 109/139/117
f 115/147/7 118/150/121 121/154/122 120/153/123
f 118/150/121 119/152/124 122/155/125 121/154/122
f 120/153/123 121/154/122 133/167/126 130/164/127
f 121/154/122 122/155/125 123/157/128 133/167/126
f 116/148/19 124/158/129 127/161/130 126/160/131
f 124/158/129 125/159/132 128/162/133 127/161/130
f 126/160/131 127/161/130 122/156/125 119/151/124
f 127/161/130 128/162/133 123/157/128 122/156/125
f 117/149/10 129/163/134 132/166/135 131/165/136
f 129/163/134 130/164/127 133/167/126 132/166/135
f 131/165/136 132/166/135 128/162/133 125/159/132
f 132/166/135 133/167/126 123/157/128 128/162/133
f 134/168/4 137/171/137 140/175/138 139/174/139
f 137/171/137 138/172/140 141/176/141 140/175/138
f 139/174/139 140/175/138 152/188/142 149/185/143
f 140/175/138 141/176/141 142/178/144 152/188/142
f 135/169/8 143/179/145 146/182/146 145/181/147
f 143/179/145 144/180/148 147/183/149 146/182/146
f 145/181/147 146/182/146 141/177/141 138/173/140
f 146/182/146 147/183/149 142/178/144 141/177/141
f 136/170/9 148/184/150 151/187/151 150/186/152
f 148/184/150 149/185/143 152/188/142 151/187/151
f 150/186/152 151/187/151 147/183/149 144/180/148
f 151/187/151 152/188/142 142/178/144 147/183/149
f 39/53/20 116/148/19 126/160/131 42/56/55
f 42/56/55 126/160/131 119/151/124 43/57/58
f 43/58/58 119/152/124 118/150/121 50/69/65
f 50/69/65 118/150/121 115/147/7 40/54/6
f 134/168/4 58/80/3 63/85/74 137/171/137
f 137/171/137 63/85/74 73/99/78 138/172/140
f 138/173/140 73/100/78 72/98/86 145/181/147
f 145/181/147 72/98/86 60/82/5 135/169/8
f 40/54/6 60/82/5 74/101/88 48/66/63
f 48/66/63 74/101/88 68/92/84 49/67/66
f 49/68/66 68/93/84 67/91/81 55/76/71
f 55/76/71 67/91/81 59/81/80 41/55/68
f 1/1/17 39/53/20 44/59/57 4/4/21
f 4/4/21 44/59/57 54/74/61 5/5/24
f 5/6/24 54/75/61 53/73/69 12/17/32
f 12/17/32 53/73/69 41/55/68 2/2/29
f 58/80/3 20/28/2 25/34/40 61/83/72
f 61/83/72 25/34/40 35/49/44 62/84/75
f 62/84/75 35/49/44 34/48/52 69/94/83
f 69/94/83 34/48/52 22/30/51 59/81/80
f 2/2/29 22/30/51 36/50/54 10/14/30
f 10/14/30 36/50/54 30/42/49 11/15/33
f 11/16/33 30/43/49 29/41/46 17/24/37
f 17/24/37 29/41/46 21/29/16 3/3/15
f 77/105/18 1/1/17 6/7/23 80/108/89
f 80/108/89 6/7/23 16/22/27 81/109/92
f 81/110/92 16/23/27 15/21/35 88/118/99
f 88/118/99 15/21/35 3/3/15 78/106/14
f 20/28/2 96/126/1 101/131/107 23/31/38
f 23/31/38 101/131/107 111/141/111 24/32/41
f 24/33/41 111/142/111 110/140/118 31/44/48
f 31/44/48 110/140/118 98/128/13 21/29/16
f 78/106/14 98/128/13 112/143/120 86/116/97
f 86/116/97 112/143/120 106/136/116 87/117/100
f 87/117/100 106/136/116 105/135/113 93/123/104
f 93/123/104 105/135/113 97/127/12 79/107/11
f 116/148/19 77/105/18 82/111/91 124/158/129
f 124/158/129 82/111/91 92/122/95 125/159/132
f 125/159/132 92/122/95 91/121/102 131/165/136
f 131/165/136 91/121/102 79/107/11 117/149/10
f 135/169/8 115/147/7 120/153/123 143/179/145
f 143/179/145 120/153/123 130/164/127 144/180/148
f 144/180/148 130/164/127 129/163/134 150/186/152
f 150/186/152 129/163/134 117/149/10 136/170/9
f 96/126/1 134/168/4 139/174/139 99/129/105
f 99/129/105 139/174/139 149/185/143 100/130/108
f 100/130/108 149/185/143 148/184/150 107/137/115
f 107/137/115 148/184/150 136/170/9 97/127/12
f 22/30/51 2/2/29 41/55/68 59/81/80
